<svg width="28" height="28" viewBox="0 0 28 28" fill="none" xmlns="http://www.w3.org/2000/svg">
<g clip-path="url(#clip0_2055_76)">
<path fill-rule="evenodd" clip-rule="evenodd" d="M22.3147 28C25.4417 28 28 25.4417 28 22.3147V5.68528C28 2.55841 25.4417 0 22.3147 0H5.68528C2.55835 0 0 2.55841 0 5.68528V22.3147C0 25.4417 2.55835 28 5.68528 28H22.3147ZM22.7738 4L16.0817 12.5738L25 24H18.6103L12.8866 16.6671L7.1634 24H5.22504L11.9177 15.4256L3 4H9.38965L15.1128 11.3323L20.8354 4H22.7738ZM6.15098 5.55418H8.6639L21.8484 22.4457H19.3355L6.15098 5.55418Z" fill="white"/>
</g>
<defs>
<clipPath id="clip0_2055_76">
<rect width="28" height="28" fill="white"/>
</clipPath>
</defs>
</svg>
