<svg width="763" height="758" viewBox="0 0 763 758" fill="none" xmlns="http://www.w3.org/2000/svg">
<path fill-rule="evenodd" clip-rule="evenodd" d="M525.182 0H763V236.813H525.182V0ZM574.727 47.5608V189.252H717.418V47.5608H574.727ZM621.3 95.1216H668.864V142.682H621.3V95.1216Z" fill="#C2C1C1"/>
<path d="M333.936 47.5608H286.373V142.682H381.5V187.271H430.055V142.682H475.636V95.1216H333.936V47.5608Z" fill="#C2C1C1"/>
<path d="M381.5 0H475.636V47.5608H381.5V0Z" fill="#C2C1C1"/>
<path d="M286.373 189.252H333.936V236.813H286.373V189.252Z" fill="#C2C1C1"/>
<path d="M430.055 236.813H475.636V330.944H286.373V284.374H430.055V236.813Z" fill="#C2C1C1"/>
<path d="M574.727 284.374H621.3V330.944H668.864V284.374H763V330.944H717.418V380.486H525.182V330.944H574.727V284.374Z" fill="#C2C1C1"/>
<path d="M668.864 428.047H763V475.608H668.864V428.047Z" fill="#C2C1C1"/>
<path d="M717.418 520.196H763V567.757H717.418V520.196Z" fill="#C2C1C1"/>
<path d="M574.727 621.263H717.418V663.869H621.3V758H574.727V621.263Z" fill="#C2C1C1"/>
<path d="M668.864 711.43H763V758H668.864V711.43Z" fill="#C2C1C1"/>
<path d="M430.055 520.196H286.373V567.757H381.5V711.43H286.373V758H430.055V711.43H525.182V663.869H430.055V520.196Z" fill="#C2C1C1"/>
<path d="M286.373 621.263H333.936V663.869H286.373V621.263Z" fill="#C2C1C1"/>
<path d="M525.182 520.196H475.636V614.327H525.182V520.196Z" fill="#C2C1C1"/>
<path d="M621.3 428.047H525.182V475.608H574.727V567.757H621.3V428.047Z" fill="#C2C1C1"/>
<path d="M430.055 380.486H475.636V475.608H430.055V380.486Z" fill="#C2C1C1"/>
<path d="M143.682 380.486H192.236V284.374H237.818V380.486H333.936V428.047H381.5V475.608H286.373V428.047H192.236V475.608H143.682V380.486Z" fill="#C2C1C1"/>
<path fill-rule="evenodd" clip-rule="evenodd" d="M0 0H237.818V236.813H0V0ZM49.5455 47.5608V189.252H192.236V47.5608H49.5455Z" fill="#C2C1C1"/>
<path d="M96.1182 95.1216H143.682V142.682H96.1182V95.1216Z" fill="#C2C1C1"/>
<path d="M96.1182 284.374H143.682V330.944H96.1182V284.374Z" fill="#C2C1C1"/>
<path d="M0 284.374H49.5455V380.486H96.1182V428.047H49.5455V475.608H0V284.374Z" fill="#C2C1C1"/>
<path fill-rule="evenodd" clip-rule="evenodd" d="M0 520.196H237.818V758H0V520.196ZM192.236 567.757H49.5455V711.43H192.236V567.757Z" fill="#C2C1C1"/>
<path d="M96.1182 621.263H143.682V663.869H96.1182V621.263Z" fill="#C2C1C1"/>
</svg>
