<svg width="250" height="82" viewBox="0 0 250 82" fill="none" xmlns="http://www.w3.org/2000/svg">
<path d="M28.776 12.636V13.296C28.072 13.318 27.533 13.406 27.159 13.56C26.785 13.692 26.532 13.956 26.4 14.352C26.29 14.726 26.235 15.32 26.235 16.134V32.502C26.235 33.294 26.301 33.888 26.433 34.284C26.565 34.68 26.807 34.944 27.159 35.076C27.533 35.208 28.072 35.296 28.776 35.34V36C28.204 35.956 27.478 35.934 26.598 35.934C25.718 35.912 24.827 35.901 23.925 35.901C22.935 35.901 22 35.912 21.12 35.934C20.262 35.934 19.569 35.956 19.041 36V35.34C19.789 35.296 20.35 35.208 20.724 35.076C21.12 34.944 21.384 34.68 21.516 34.284C21.648 33.888 21.714 33.294 21.714 32.502V14.55L21.945 14.583L13.761 36.099H13.233L4.521 14.748V31.116C4.521 32.172 4.587 32.997 4.719 33.591C4.851 34.163 5.137 34.581 5.577 34.845C6.039 35.087 6.732 35.252 7.656 35.34V36C7.238 35.956 6.699 35.934 6.039 35.934C5.379 35.912 4.752 35.901 4.158 35.901C3.63 35.901 3.091 35.912 2.541 35.934C2.013 35.934 1.573 35.956 1.221 36V35.34C1.947 35.252 2.486 35.087 2.838 34.845C3.212 34.603 3.454 34.207 3.564 33.657C3.696 33.107 3.762 32.348 3.762 31.38V16.134C3.762 15.32 3.696 14.726 3.564 14.352C3.454 13.956 3.212 13.692 2.838 13.56C2.486 13.406 1.947 13.318 1.221 13.296V12.636C1.573 12.658 2.013 12.68 2.541 12.702C3.091 12.724 3.63 12.735 4.158 12.735C4.972 12.735 5.764 12.724 6.534 12.702C7.304 12.68 7.986 12.658 8.58 12.636L15.675 30.357L14.949 30.951L21.846 12.735C22.176 12.735 22.517 12.735 22.869 12.735C23.243 12.735 23.595 12.735 23.925 12.735C24.827 12.735 25.718 12.724 26.598 12.702C27.478 12.68 28.204 12.658 28.776 12.636ZM38.5646 18.477C40.5006 18.477 42.0186 19.06 43.1186 20.226C44.2186 21.392 44.7686 23.251 44.7686 25.803H33.6476L33.6146 25.176H40.9406C40.9846 24.098 40.9186 23.108 40.7426 22.206C40.5666 21.282 40.2806 20.545 39.8846 19.995C39.5106 19.445 39.0156 19.17 38.3996 19.17C37.5636 19.17 36.8376 19.665 36.2216 20.655C35.6056 21.623 35.2206 23.218 35.0666 25.44L35.1986 25.638C35.1546 25.924 35.1216 26.232 35.0996 26.562C35.0996 26.892 35.0996 27.222 35.0996 27.552C35.0996 29.07 35.3196 30.324 35.7596 31.314C36.1996 32.304 36.7716 33.03 37.4756 33.492C38.1796 33.954 38.9056 34.185 39.6536 34.185C40.1596 34.185 40.6766 34.108 41.2046 33.954C41.7326 33.8 42.2496 33.514 42.7556 33.096C43.2616 32.678 43.7236 32.084 44.1416 31.314L44.7686 31.578C44.5266 32.348 44.1196 33.118 43.5476 33.888C42.9976 34.636 42.2826 35.252 41.4026 35.736C40.5226 36.22 39.4886 36.462 38.3006 36.462C36.8046 36.462 35.4846 36.132 34.3406 35.472C33.1966 34.812 32.3056 33.833 31.6676 32.535C31.0296 31.215 30.7106 29.609 30.7106 27.717C30.7106 25.715 31.0406 24.032 31.7006 22.668C32.3826 21.304 33.3176 20.27 34.5056 19.566C35.6936 18.84 37.0466 18.477 38.5646 18.477ZM58.3969 18.477C59.2549 18.477 59.9699 18.598 60.5419 18.84C61.1359 19.082 61.5979 19.39 61.9279 19.764C62.3239 20.182 62.5989 20.743 62.7529 21.447C62.9069 22.129 62.9839 22.998 62.9839 24.054V32.931C62.9839 33.855 63.1379 34.482 63.4459 34.812C63.7759 35.142 64.3259 35.307 65.0959 35.307V36C64.6999 35.978 64.1059 35.956 63.3139 35.934C62.5219 35.89 61.7519 35.868 61.0039 35.868C60.2119 35.868 59.4419 35.89 58.6939 35.934C57.9679 35.956 57.4179 35.978 57.0439 36V35.307C57.6819 35.307 58.1329 35.142 58.3969 34.812C58.6829 34.482 58.8259 33.855 58.8259 32.931V22.932C58.8259 22.338 58.7819 21.81 58.6939 21.348C58.6059 20.864 58.4189 20.49 58.1329 20.226C57.8469 19.94 57.4069 19.797 56.8129 19.797C56.1309 19.797 55.5149 19.995 54.9649 20.391C54.4149 20.787 53.9749 21.337 53.6449 22.041C53.3369 22.723 53.1829 23.493 53.1829 24.351V32.931C53.1829 33.855 53.3149 34.482 53.5789 34.812C53.8429 35.142 54.3049 35.307 54.9649 35.307V36C54.5909 35.978 54.0409 35.956 53.3149 35.934C52.6109 35.89 51.8849 35.868 51.1369 35.868C50.3229 35.868 49.4979 35.89 48.6619 35.934C47.8259 35.956 47.1989 35.978 46.7809 36V35.307C47.5949 35.307 48.1669 35.142 48.4969 34.812C48.8489 34.482 49.0249 33.855 49.0249 32.931V22.536C49.0249 21.546 48.8599 20.82 48.5299 20.358C48.2219 19.874 47.6389 19.632 46.7809 19.632V18.939C47.4849 19.005 48.1669 19.038 48.8269 19.038C49.6409 19.038 50.4109 19.005 51.1369 18.939C51.8849 18.851 52.5669 18.73 53.1829 18.576V21.876C53.7329 20.666 54.4699 19.797 55.3939 19.269C56.3179 18.741 57.3189 18.477 58.3969 18.477ZM68.3299 18.477C69.1879 18.477 69.9029 18.598 70.4749 18.84C71.0689 19.082 71.5309 19.39 71.8609 19.764C72.2569 20.182 72.5319 20.743 72.6859 21.447C72.8399 22.129 72.9169 22.998 72.9169 24.054V32.931C72.9169 33.855 73.0819 34.482 73.4119 34.812C73.7639 35.142 74.3469 35.307 75.1609 35.307V36C74.7649 35.978 74.1489 35.956 73.3129 35.934C72.4989 35.89 71.7069 35.868 70.9369 35.868C70.1449 35.868 69.3749 35.89 68.6269 35.934C67.9009 35.956 67.3509 35.978 66.9769 36V35.307C67.6149 35.307 68.0659 35.142 68.3299 34.812C68.6159 34.482 68.7589 33.855 68.7589 32.931V22.932C68.7589 22.338 68.7039 21.81 68.5939 21.348C68.5059 20.864 68.3079 20.49 67.9999 20.226C67.6919 19.94 67.2299 19.797 66.6139 19.797C65.9319 19.797 65.3159 20.006 64.7659 20.424C64.2159 20.842 63.7759 21.403 63.4459 22.107C63.1379 22.789 62.9729 23.559 62.9509 24.417L62.7859 22.041C63.3799 20.677 64.1719 19.742 65.1619 19.236C66.1519 18.73 67.2079 18.477 68.3299 18.477ZM84.8435 18.477C86.3615 18.477 87.7035 18.785 88.8695 19.401C90.0575 19.995 90.9925 20.952 91.6745 22.272C92.3785 23.592 92.7305 25.33 92.7305 27.486C92.7305 29.642 92.3785 31.38 91.6745 32.7C90.9925 34.02 90.0575 34.977 88.8695 35.571C87.7035 36.165 86.3615 36.462 84.8435 36.462C83.3255 36.462 81.9725 36.165 80.7845 35.571C79.5965 34.977 78.6615 34.02 77.9795 32.7C77.2975 31.38 76.9565 29.642 76.9565 27.486C76.9565 25.33 77.2975 23.592 77.9795 22.272C78.6615 20.952 79.5965 19.995 80.7845 19.401C81.9725 18.785 83.3255 18.477 84.8435 18.477ZM84.8435 19.137C83.8095 19.137 82.9625 19.797 82.3025 21.117C81.6645 22.415 81.3455 24.538 81.3455 27.486C81.3455 30.434 81.6645 32.557 82.3025 33.855C82.9625 35.153 83.8095 35.802 84.8435 35.802C85.8555 35.802 86.6915 35.153 87.3515 33.855C88.0115 32.557 88.3415 30.434 88.3415 27.486C88.3415 24.538 88.0115 22.415 87.3515 21.117C86.6915 19.797 85.8555 19.137 84.8435 19.137ZM105.851 18.477C106.533 18.477 107.094 18.62 107.534 18.906C107.996 19.192 108.337 19.555 108.557 19.995C108.777 20.435 108.887 20.897 108.887 21.381C108.887 22.107 108.667 22.712 108.227 23.196C107.809 23.68 107.248 23.922 106.544 23.922C105.884 23.922 105.345 23.746 104.927 23.394C104.509 23.042 104.3 22.558 104.3 21.942C104.3 21.392 104.432 20.93 104.696 20.556C104.982 20.182 105.301 19.885 105.653 19.665C105.411 19.533 105.136 19.489 104.828 19.533C104.3 19.577 103.816 19.764 103.376 20.094C102.936 20.424 102.562 20.831 102.254 21.315C101.946 21.799 101.704 22.316 101.528 22.866C101.374 23.416 101.297 23.944 101.297 24.45V32.601C101.297 33.679 101.572 34.405 102.122 34.779C102.672 35.131 103.475 35.307 104.531 35.307V36C104.025 35.978 103.288 35.956 102.32 35.934C101.374 35.89 100.384 35.868 99.3501 35.868C98.4921 35.868 97.6341 35.89 96.7761 35.934C95.9401 35.956 95.3131 35.978 94.8951 36V35.307C95.7091 35.307 96.2811 35.142 96.6111 34.812C96.9631 34.482 97.1391 33.855 97.1391 32.931V22.536C97.1391 21.546 96.9741 20.82 96.6441 20.358C96.3361 19.874 95.7531 19.632 94.8951 19.632V18.939C95.5991 19.005 96.2811 19.038 96.9411 19.038C97.7551 19.038 98.5251 19.005 99.2511 18.939C99.9991 18.851 100.681 18.73 101.297 18.576V22.008C101.561 21.392 101.902 20.82 102.32 20.292C102.76 19.764 103.277 19.335 103.871 19.005C104.487 18.653 105.147 18.477 105.851 18.477ZM114.134 10.524C114.926 10.524 115.575 10.744 116.081 11.184C116.587 11.624 116.84 12.207 116.84 12.933C116.84 13.659 116.587 14.242 116.081 14.682C115.575 15.122 114.926 15.342 114.134 15.342C113.342 15.342 112.693 15.122 112.187 14.682C111.681 14.242 111.428 13.659 111.428 12.933C111.428 12.207 111.681 11.624 112.187 11.184C112.693 10.744 113.342 10.524 114.134 10.524ZM116.444 18.576V32.931C116.444 33.855 116.609 34.482 116.939 34.812C117.291 35.142 117.874 35.307 118.688 35.307V36C118.292 35.978 117.687 35.956 116.873 35.934C116.059 35.89 115.234 35.868 114.398 35.868C113.584 35.868 112.759 35.89 111.923 35.934C111.087 35.956 110.46 35.978 110.042 36V35.307C110.856 35.307 111.428 35.142 111.758 34.812C112.11 34.482 112.286 33.855 112.286 32.931V22.569C112.286 21.557 112.121 20.82 111.791 20.358C111.483 19.874 110.9 19.632 110.042 19.632V18.939C110.746 19.005 111.428 19.038 112.088 19.038C112.902 19.038 113.672 19.005 114.398 18.939C115.146 18.851 115.828 18.73 116.444 18.576ZM124.78 36.231C123.834 36.231 123.031 36.055 122.371 35.703C121.711 35.329 121.216 34.834 120.886 34.218C120.556 33.58 120.391 32.876 120.391 32.106C120.391 31.16 120.611 30.39 121.051 29.796C121.491 29.18 122.052 28.696 122.734 28.344C123.438 27.97 124.175 27.662 124.945 27.42C125.715 27.156 126.441 26.914 127.123 26.694C127.805 26.452 128.366 26.177 128.806 25.869C129.246 25.561 129.466 25.154 129.466 24.648V22.239C129.466 21.535 129.356 20.963 129.136 20.523C128.938 20.061 128.63 19.72 128.212 19.5C127.816 19.258 127.31 19.137 126.694 19.137C126.232 19.137 125.748 19.203 125.242 19.335C124.736 19.467 124.318 19.72 123.988 20.094C124.56 20.248 125 20.534 125.308 20.952C125.638 21.37 125.803 21.876 125.803 22.47C125.803 23.152 125.572 23.691 125.11 24.087C124.67 24.461 124.109 24.648 123.427 24.648C122.701 24.648 122.151 24.417 121.777 23.955C121.403 23.493 121.216 22.954 121.216 22.338C121.216 21.722 121.37 21.216 121.678 20.82C121.986 20.402 122.415 20.028 122.965 19.698C123.515 19.324 124.219 19.027 125.077 18.807C125.935 18.587 126.87 18.477 127.882 18.477C128.85 18.477 129.708 18.587 130.456 18.807C131.204 19.005 131.842 19.368 132.37 19.896C132.898 20.402 133.239 21.029 133.393 21.777C133.547 22.525 133.624 23.438 133.624 24.516V33.558C133.624 34.108 133.69 34.504 133.822 34.746C133.954 34.966 134.163 35.076 134.449 35.076C134.669 35.076 134.878 35.021 135.076 34.911C135.274 34.801 135.494 34.647 135.736 34.449L136.099 35.01C135.615 35.384 135.109 35.681 134.581 35.901C134.053 36.121 133.415 36.231 132.667 36.231C131.897 36.231 131.281 36.121 130.819 35.901C130.379 35.681 130.049 35.362 129.829 34.944C129.631 34.526 129.521 34.031 129.499 33.459C128.971 34.339 128.322 35.021 127.552 35.505C126.782 35.989 125.858 36.231 124.78 36.231ZM126.76 34.383C127.288 34.383 127.772 34.24 128.212 33.954C128.674 33.668 129.092 33.239 129.466 32.667V26.001C129.246 26.331 128.927 26.628 128.509 26.892C128.113 27.156 127.684 27.42 127.222 27.684C126.76 27.948 126.32 28.256 125.902 28.608C125.506 28.938 125.165 29.356 124.879 29.862C124.615 30.346 124.483 30.973 124.483 31.743C124.483 32.601 124.692 33.261 125.11 33.723C125.528 34.163 126.078 34.383 126.76 34.383ZM143.251 10.161V32.931C143.251 33.855 143.416 34.482 143.746 34.812C144.098 35.142 144.681 35.307 145.495 35.307V36C145.099 35.978 144.494 35.956 143.68 35.934C142.888 35.89 142.074 35.868 141.238 35.868C140.424 35.868 139.588 35.89 138.73 35.934C137.894 35.956 137.267 35.978 136.849 36V35.307C137.663 35.307 138.235 35.142 138.565 34.812C138.917 34.482 139.093 33.855 139.093 32.931V14.121C139.093 13.131 138.939 12.405 138.631 11.943C138.323 11.459 137.729 11.217 136.849 11.217V10.524C137.553 10.59 138.235 10.623 138.895 10.623C139.731 10.623 140.512 10.59 141.238 10.524C141.964 10.436 142.635 10.315 143.251 10.161ZM166.549 18.477C167.407 18.477 168.122 18.598 168.694 18.84C169.288 19.082 169.75 19.39 170.08 19.764C170.476 20.182 170.751 20.743 170.905 21.447C171.059 22.129 171.136 22.998 171.136 24.054V32.931C171.136 33.855 171.29 34.482 171.598 34.812C171.928 35.142 172.478 35.307 173.248 35.307V36C172.852 35.978 172.258 35.956 171.466 35.934C170.674 35.89 169.904 35.868 169.156 35.868C168.364 35.868 167.594 35.89 166.846 35.934C166.12 35.956 165.57 35.978 165.196 36V35.307C165.834 35.307 166.285 35.142 166.549 34.812C166.835 34.482 166.978 33.855 166.978 32.931V22.932C166.978 22.338 166.934 21.81 166.846 21.348C166.758 20.864 166.571 20.49 166.285 20.226C165.999 19.94 165.559 19.797 164.965 19.797C164.283 19.797 163.667 19.995 163.117 20.391C162.567 20.787 162.127 21.337 161.797 22.041C161.489 22.723 161.335 23.493 161.335 24.351V32.931C161.335 33.855 161.467 34.482 161.731 34.812C161.995 35.142 162.457 35.307 163.117 35.307V36C162.743 35.978 162.193 35.956 161.467 35.934C160.763 35.89 160.037 35.868 159.289 35.868C158.475 35.868 157.65 35.89 156.814 35.934C155.978 35.956 155.351 35.978 154.933 36V35.307C155.747 35.307 156.319 35.142 156.649 34.812C157.001 34.482 157.177 33.855 157.177 32.931V22.536C157.177 21.546 157.012 20.82 156.682 20.358C156.374 19.874 155.791 19.632 154.933 19.632V18.939C155.637 19.005 156.319 19.038 156.979 19.038C157.793 19.038 158.563 19.005 159.289 18.939C160.037 18.851 160.719 18.73 161.335 18.576V21.876C161.885 20.666 162.622 19.797 163.546 19.269C164.47 18.741 165.471 18.477 166.549 18.477ZM176.482 18.477C177.34 18.477 178.055 18.598 178.627 18.84C179.221 19.082 179.683 19.39 180.013 19.764C180.409 20.182 180.684 20.743 180.838 21.447C180.992 22.129 181.069 22.998 181.069 24.054V32.931C181.069 33.855 181.234 34.482 181.564 34.812C181.916 35.142 182.499 35.307 183.313 35.307V36C182.917 35.978 182.301 35.956 181.465 35.934C180.651 35.89 179.859 35.868 179.089 35.868C178.297 35.868 177.527 35.89 176.779 35.934C176.053 35.956 175.503 35.978 175.129 36V35.307C175.767 35.307 176.218 35.142 176.482 34.812C176.768 34.482 176.911 33.855 176.911 32.931V22.932C176.911 22.338 176.856 21.81 176.746 21.348C176.658 20.864 176.46 20.49 176.152 20.226C175.844 19.94 175.382 19.797 174.766 19.797C174.084 19.797 173.468 20.006 172.918 20.424C172.368 20.842 171.928 21.403 171.598 22.107C171.29 22.789 171.125 23.559 171.103 24.417L170.938 22.041C171.532 20.677 172.324 19.742 173.314 19.236C174.304 18.73 175.36 18.477 176.482 18.477ZM189.201 36.231C188.255 36.231 187.452 36.055 186.792 35.703C186.132 35.329 185.637 34.834 185.307 34.218C184.977 33.58 184.812 32.876 184.812 32.106C184.812 31.16 185.032 30.39 185.472 29.796C185.912 29.18 186.473 28.696 187.155 28.344C187.859 27.97 188.596 27.662 189.366 27.42C190.136 27.156 190.862 26.914 191.544 26.694C192.226 26.452 192.787 26.177 193.227 25.869C193.667 25.561 193.887 25.154 193.887 24.648V22.239C193.887 21.535 193.777 20.963 193.557 20.523C193.359 20.061 193.051 19.72 192.633 19.5C192.237 19.258 191.731 19.137 191.115 19.137C190.653 19.137 190.169 19.203 189.663 19.335C189.157 19.467 188.739 19.72 188.409 20.094C188.981 20.248 189.421 20.534 189.729 20.952C190.059 21.37 190.224 21.876 190.224 22.47C190.224 23.152 189.993 23.691 189.531 24.087C189.091 24.461 188.53 24.648 187.848 24.648C187.122 24.648 186.572 24.417 186.198 23.955C185.824 23.493 185.637 22.954 185.637 22.338C185.637 21.722 185.791 21.216 186.099 20.82C186.407 20.402 186.836 20.028 187.386 19.698C187.936 19.324 188.64 19.027 189.498 18.807C190.356 18.587 191.291 18.477 192.303 18.477C193.271 18.477 194.129 18.587 194.877 18.807C195.625 19.005 196.263 19.368 196.791 19.896C197.319 20.402 197.66 21.029 197.814 21.777C197.968 22.525 198.045 23.438 198.045 24.516V33.558C198.045 34.108 198.111 34.504 198.243 34.746C198.375 34.966 198.584 35.076 198.87 35.076C199.09 35.076 199.299 35.021 199.497 34.911C199.695 34.801 199.915 34.647 200.157 34.449L200.52 35.01C200.036 35.384 199.53 35.681 199.002 35.901C198.474 36.121 197.836 36.231 197.088 36.231C196.318 36.231 195.702 36.121 195.24 35.901C194.8 35.681 194.47 35.362 194.25 34.944C194.052 34.526 193.942 34.031 193.92 33.459C193.392 34.339 192.743 35.021 191.973 35.505C191.203 35.989 190.279 36.231 189.201 36.231ZM191.181 34.383C191.709 34.383 192.193 34.24 192.633 33.954C193.095 33.668 193.513 33.239 193.887 32.667V26.001C193.667 26.331 193.348 26.628 192.93 26.892C192.534 27.156 192.105 27.42 191.643 27.684C191.181 27.948 190.741 28.256 190.323 28.608C189.927 28.938 189.586 29.356 189.3 29.862C189.036 30.346 188.904 30.973 188.904 31.743C188.904 32.601 189.113 33.261 189.531 33.723C189.949 34.163 190.499 34.383 191.181 34.383ZM212.424 18.477C213.106 18.477 213.667 18.62 214.107 18.906C214.569 19.192 214.91 19.555 215.13 19.995C215.35 20.435 215.46 20.897 215.46 21.381C215.46 22.107 215.24 22.712 214.8 23.196C214.382 23.68 213.821 23.922 213.117 23.922C212.457 23.922 211.918 23.746 211.5 23.394C211.082 23.042 210.873 22.558 210.873 21.942C210.873 21.392 211.005 20.93 211.269 20.556C211.555 20.182 211.874 19.885 212.226 19.665C211.984 19.533 211.709 19.489 211.401 19.533C210.873 19.577 210.389 19.764 209.949 20.094C209.509 20.424 209.135 20.831 208.827 21.315C208.519 21.799 208.277 22.316 208.101 22.866C207.947 23.416 207.87 23.944 207.87 24.45V32.601C207.87 33.679 208.145 34.405 208.695 34.779C209.245 35.131 210.048 35.307 211.104 35.307V36C210.598 35.978 209.861 35.956 208.893 35.934C207.947 35.89 206.957 35.868 205.923 35.868C205.065 35.868 204.207 35.89 203.349 35.934C202.513 35.956 201.886 35.978 201.468 36V35.307C202.282 35.307 202.854 35.142 203.184 34.812C203.536 34.482 203.712 33.855 203.712 32.931V22.536C203.712 21.546 203.547 20.82 203.217 20.358C202.909 19.874 202.326 19.632 201.468 19.632V18.939C202.172 19.005 202.854 19.038 203.514 19.038C204.328 19.038 205.098 19.005 205.824 18.939C206.572 18.851 207.254 18.73 207.87 18.576V22.008C208.134 21.392 208.475 20.82 208.893 20.292C209.333 19.764 209.85 19.335 210.444 19.005C211.06 18.653 211.72 18.477 212.424 18.477ZM222.012 10.161V32.931C222.012 33.855 222.166 34.482 222.474 34.812C222.782 35.142 223.31 35.307 224.058 35.307V36C223.684 35.978 223.112 35.956 222.342 35.934C221.572 35.89 220.791 35.868 219.999 35.868C219.185 35.868 218.349 35.89 217.491 35.934C216.655 35.956 216.028 35.978 215.61 36V35.307C216.424 35.307 216.996 35.142 217.326 34.812C217.678 34.482 217.854 33.855 217.854 32.931V14.121C217.854 13.131 217.689 12.405 217.359 11.943C217.051 11.459 216.468 11.217 215.61 11.217V10.524C216.314 10.59 216.996 10.623 217.656 10.623C218.492 10.623 219.273 10.59 219.999 10.524C220.725 10.436 221.396 10.315 222.012 10.161ZM232.704 18.939V19.599C232.044 19.731 231.406 19.984 230.79 20.358C230.174 20.71 229.569 21.205 228.975 21.843L225.708 25.242L226.071 24.516L231.879 33.591C232.187 34.031 232.473 34.405 232.737 34.713C233.023 34.999 233.375 35.197 233.793 35.307V36C233.507 35.978 233.056 35.956 232.44 35.934C231.824 35.89 231.208 35.868 230.592 35.868C229.844 35.868 229.074 35.89 228.282 35.934C227.512 35.956 226.929 35.978 226.533 36V35.307C226.973 35.307 227.27 35.208 227.424 35.01C227.6 34.79 227.578 34.515 227.358 34.185L223.926 28.41C223.618 27.926 223.321 27.618 223.035 27.486C222.749 27.332 222.364 27.255 221.88 27.255V26.595C222.43 26.551 222.881 26.452 223.233 26.298C223.607 26.144 223.959 25.902 224.289 25.572L226.764 23.097C227.49 22.371 227.853 21.755 227.853 21.249C227.875 20.743 227.644 20.358 227.16 20.094C226.698 19.808 226.093 19.643 225.345 19.599V18.939C225.939 18.961 226.599 18.994 227.325 19.038C228.051 19.06 228.667 19.071 229.173 19.071C229.569 19.071 229.987 19.071 230.427 19.071C230.889 19.049 231.318 19.027 231.714 19.005C232.132 18.983 232.462 18.961 232.704 18.939ZM241.094 18.477C242.018 18.477 242.81 18.609 243.47 18.873C244.13 19.137 244.614 19.368 244.922 19.566C245.67 20.116 246.121 19.764 246.275 18.51H247.001C246.957 19.148 246.924 19.907 246.902 20.787C246.88 21.645 246.869 22.8 246.869 24.252H246.143C246.033 23.438 245.824 22.646 245.516 21.876C245.208 21.106 244.757 20.468 244.163 19.962C243.569 19.434 242.788 19.17 241.82 19.17C241.138 19.17 240.566 19.368 240.104 19.764C239.664 20.16 239.444 20.721 239.444 21.447C239.444 22.107 239.642 22.69 240.038 23.196C240.434 23.68 240.94 24.142 241.556 24.582C242.194 25 242.854 25.462 243.536 25.968C244.328 26.496 245.032 27.035 245.648 27.585C246.264 28.113 246.759 28.707 247.133 29.367C247.507 30.005 247.694 30.764 247.694 31.644C247.694 32.656 247.408 33.525 246.836 34.251C246.286 34.955 245.549 35.505 244.625 35.901C243.723 36.275 242.722 36.462 241.622 36.462C241.028 36.462 240.489 36.407 240.005 36.297C239.521 36.187 239.092 36.044 238.718 35.868C238.432 35.714 238.168 35.571 237.926 35.439C237.706 35.307 237.475 35.197 237.233 35.109C237.013 34.999 236.815 35.043 236.639 35.241C236.485 35.439 236.364 35.769 236.276 36.231H235.55C235.594 35.527 235.627 34.669 235.649 33.657C235.671 32.645 235.682 31.303 235.682 29.631H236.408C236.562 30.841 236.793 31.908 237.101 32.832C237.431 33.734 237.904 34.449 238.52 34.977C239.136 35.483 239.928 35.736 240.896 35.736C241.314 35.736 241.71 35.648 242.084 35.472C242.48 35.296 242.799 35.021 243.041 34.647C243.305 34.273 243.437 33.767 243.437 33.129C243.437 32.161 243.107 31.358 242.447 30.72C241.787 30.082 240.962 29.4 239.972 28.674C239.224 28.124 238.52 27.585 237.86 27.057C237.222 26.529 236.694 25.935 236.276 25.275C235.88 24.615 235.682 23.834 235.682 22.932C235.682 21.942 235.935 21.128 236.441 20.49C236.947 19.83 237.607 19.335 238.421 19.005C239.257 18.653 240.148 18.477 241.094 18.477Z" fill="white"/>
<path d="M6.279 61.274C5.719 61.274 5.285 61.12 4.977 60.812C4.683 60.49 4.536 60.105 4.536 59.657C4.536 59.545 4.55 59.412 4.578 59.258C4.62 59.104 4.669 58.971 4.725 58.859C4.907 58.943 5.173 59.006 5.523 59.048C5.887 59.076 6.307 59.09 6.783 59.09C7.497 59.09 8.302 59.062 9.198 59.006C10.108 58.936 10.976 58.866 11.802 58.796C12.628 58.726 13.356 58.663 13.986 58.607C14.616 58.537 15.022 58.502 15.204 58.502C15.722 58.502 16.093 58.698 16.317 59.09C16.555 59.468 16.73 59.979 16.842 60.623C16.478 60.595 16.114 60.574 15.75 60.56C15.4 60.532 15.099 60.518 14.847 60.518C14.399 60.518 13.944 60.532 13.482 60.56C13.034 60.588 12.579 60.63 12.117 60.686C11.921 61.092 11.704 61.575 11.466 62.135C11.228 62.681 10.99 63.255 10.752 63.857C10.528 64.459 10.311 65.061 10.101 65.663C9.891 66.251 9.709 66.783 9.555 67.259C9.247 68.183 8.974 69.037 8.736 69.821C8.512 70.605 8.309 71.34 8.127 72.026C7.959 72.698 7.812 73.342 7.686 73.958C7.56 74.574 7.448 75.176 7.35 75.764C6.412 75.624 5.628 75.036 4.998 74C5.11 73.566 5.243 73.097 5.397 72.593C5.565 72.075 5.754 71.494 5.964 70.85C6.188 70.192 6.447 69.45 6.741 68.624C7.035 67.798 7.371 66.86 7.749 65.81C7.889 65.418 8.036 65.012 8.19 64.592C8.344 64.158 8.491 63.731 8.631 63.311C8.785 62.891 8.918 62.485 9.03 62.093C9.156 61.701 9.261 61.344 9.345 61.022C8.757 61.092 8.197 61.155 7.665 61.211C7.147 61.253 6.685 61.274 6.279 61.274ZM13.7179 73.58C13.7879 73.174 13.9069 72.642 14.0749 71.984C14.2569 71.312 14.4669 70.605 14.7049 69.863C14.9429 69.107 15.1949 68.351 15.4609 67.595C15.7269 66.839 15.9859 66.16 16.2379 65.558C16.4199 65.124 16.5809 64.788 16.7209 64.55C16.8609 64.298 17.0149 64.088 17.1829 63.92C17.3789 63.948 17.5819 63.997 17.7919 64.067C18.0019 64.137 18.2049 64.221 18.4009 64.319C18.5969 64.417 18.7719 64.522 18.9259 64.634C19.0799 64.732 19.1989 64.83 19.2829 64.928C18.9049 65.376 18.5689 65.887 18.2749 66.461C17.9949 67.035 17.7079 67.77 17.4139 68.666C18.1699 67.994 18.8349 67.35 19.4089 66.734C19.9969 66.118 20.5429 65.432 21.0469 64.676C21.1309 64.606 21.2779 64.571 21.4879 64.571C21.6839 64.571 21.8729 64.606 22.0549 64.676C22.2369 64.732 22.3629 64.816 22.4329 64.928C22.1809 65.6 22.0549 66.265 22.0549 66.923C22.0549 67.539 22.1459 68.001 22.3279 68.309C22.3139 68.393 22.2159 68.554 22.0339 68.792C21.8659 69.03 21.6769 69.254 21.4669 69.464C21.0889 69.268 20.7529 69.002 20.4589 68.666C20.1649 68.316 19.9479 67.938 19.8079 67.532C19.1499 67.994 18.5899 68.449 18.1279 68.897C17.6659 69.331 17.2669 69.821 16.9309 70.367C16.6089 70.899 16.3289 71.515 16.0909 72.215C15.8669 72.915 15.6499 73.748 15.4399 74.714C15.3139 74.7 15.1599 74.651 14.9779 74.567C14.8099 74.497 14.6349 74.406 14.4529 74.294C14.2849 74.182 14.1309 74.063 13.9909 73.937C13.8509 73.811 13.7599 73.692 13.7179 73.58ZM24.6026 72.593C24.6026 72.467 24.6096 72.313 24.6236 72.131C24.6516 71.935 24.6936 71.683 24.7496 71.375C24.8056 71.053 24.8756 70.668 24.9596 70.22C25.0576 69.772 25.1766 69.233 25.3166 68.603C25.3446 68.463 25.4076 68.239 25.5056 67.931C25.6036 67.623 25.7296 67.301 25.8836 66.965C26.0516 66.615 26.2476 66.279 26.4716 65.957C26.7096 65.635 26.9896 65.397 27.3116 65.243C27.5496 65.299 27.8646 65.446 28.2566 65.684C28.6486 65.908 28.9846 66.223 29.2646 66.629C28.9426 66.993 28.6696 67.357 28.4456 67.721C28.2356 68.085 28.0396 68.463 27.8576 68.855C27.6896 69.247 27.5286 69.653 27.3746 70.073C27.2346 70.493 27.0736 70.934 26.8916 71.396C26.7376 71.788 26.5976 72.194 26.4716 72.614C26.3456 73.02 26.2756 73.377 26.2616 73.685C26.2616 73.937 26.2546 74.112 26.2406 74.21C26.2406 74.322 26.2056 74.378 26.1356 74.378C26.0796 74.378 25.9676 74.343 25.7996 74.273C25.6316 74.203 25.4566 74.098 25.2746 73.958C25.1066 73.804 24.9526 73.615 24.8126 73.391C24.6726 73.167 24.6026 72.901 24.6026 72.593ZM28.6136 63.479C28.6136 63.395 28.6346 63.269 28.6766 63.101C28.6066 63.031 28.5436 62.926 28.4876 62.786C28.4456 62.646 28.4246 62.52 28.4246 62.408C28.4246 62.282 28.4386 62.114 28.4666 61.904C28.5086 61.68 28.5576 61.442 28.6136 61.19C28.6696 60.938 28.7396 60.679 28.8236 60.413C28.9076 60.133 28.9916 59.881 29.0756 59.657C29.2436 59.657 29.4466 59.706 29.6846 59.804C29.9366 59.888 30.1886 60.007 30.4406 60.161C30.6926 60.301 30.9236 60.462 31.1336 60.644C31.3436 60.812 31.5046 60.973 31.6166 61.127C31.4626 61.281 31.2596 61.498 31.0076 61.778C30.7556 62.044 30.5106 62.331 30.2726 62.639C30.0346 62.933 29.8176 63.213 29.6216 63.479C29.4256 63.745 29.2996 63.934 29.2436 64.046C29.0756 64.018 28.9286 63.948 28.8026 63.836C28.6766 63.71 28.6136 63.591 28.6136 63.479ZM29.9015 80.951C29.7055 80.895 29.5935 80.685 29.5655 80.321C29.5095 80.139 29.4675 79.922 29.4395 79.67C29.4255 79.418 29.4185 79.131 29.4185 78.809C29.4185 78.515 29.4675 78.109 29.5655 77.591C29.6635 77.087 29.7965 76.513 29.9645 75.869C30.1465 75.225 30.3635 74.532 30.6155 73.79C30.8675 73.034 31.1475 72.271 31.4555 71.501C31.8335 70.535 32.1625 69.702 32.4425 69.002C32.7225 68.288 32.9535 67.672 33.1355 67.154C33.3315 66.636 33.4855 66.209 33.5975 65.873C33.7235 65.537 33.8215 65.25 33.8915 65.012C33.9475 64.844 34.0315 64.641 34.1435 64.403C34.2555 64.165 34.3815 63.927 34.5215 63.689C34.6755 63.437 34.8295 63.206 34.9835 62.996C35.1375 62.772 35.2775 62.604 35.4035 62.492C35.8935 62.562 36.3555 62.688 36.7895 62.87C37.2235 63.052 37.4895 63.227 37.5875 63.395C37.3915 63.577 37.1675 63.864 36.9155 64.256C36.6635 64.634 36.4185 65.054 36.1805 65.516C35.9425 65.964 35.7255 66.426 35.5295 66.902C35.3335 67.378 35.1865 67.798 35.0885 68.162C35.2285 67.924 35.4105 67.665 35.6345 67.385C35.8585 67.105 36.2015 66.72 36.6635 66.23C37.1815 65.698 37.6645 65.292 38.1125 65.012C38.5745 64.718 38.9735 64.571 39.3095 64.571C39.8415 64.571 40.2755 64.718 40.6115 65.012C40.9615 65.306 41.1365 65.684 41.1365 66.146C41.1365 67.154 40.9685 68.155 40.6325 69.149C40.2965 70.129 39.8135 71.018 39.1835 71.816C38.9455 72.124 38.6655 72.418 38.3435 72.698C38.0215 72.978 37.6855 73.23 37.3355 73.454C36.9855 73.664 36.6425 73.832 36.3065 73.958C35.9705 74.084 35.6695 74.147 35.4035 74.147C35.1515 74.147 34.9275 74.098 34.7315 74C34.5495 73.888 34.4235 73.755 34.3535 73.601C34.8995 73.279 35.4315 72.831 35.9495 72.257C36.4675 71.683 36.9435 71.025 37.3775 70.283C37.8255 69.527 38.2105 68.715 38.5325 67.847C38.8685 66.979 39.1205 66.097 39.2885 65.201C38.7565 65.481 38.2735 65.789 37.8395 66.125C37.4195 66.447 36.9995 66.874 36.5795 67.406C36.0755 68.022 35.6765 68.519 35.3825 68.897C35.0885 69.275 34.8435 69.597 34.6475 69.863C34.4655 70.129 34.3115 70.381 34.1855 70.619C34.0735 70.843 33.9475 71.123 33.8075 71.459C33.6115 71.907 33.3805 72.502 33.1145 73.244C32.8625 73.972 32.5965 74.791 32.3165 75.701C32.0505 76.611 31.7775 77.577 31.4975 78.599C31.2315 79.635 30.9725 80.664 30.7205 81.686C30.5665 81.658 30.4335 81.546 30.3215 81.35C30.2095 81.224 30.1255 81.133 30.0695 81.077C30.0275 81.021 29.9715 80.979 29.9015 80.951ZM55.2554 64.193C55.5354 64.193 55.8574 64.277 56.2214 64.445C56.5854 64.613 56.9074 64.83 57.1874 65.096C57.1174 64.536 57.0264 64.011 56.9144 63.521C56.8164 63.017 56.6624 62.499 56.4524 61.967C56.2564 61.435 55.9904 60.854 55.6544 60.224C55.3184 59.594 54.8984 58.873 54.3944 58.061C54.4364 57.935 54.5274 57.788 54.6674 57.62C54.8214 57.452 54.9894 57.298 55.1714 57.158C55.3674 57.004 55.5634 56.871 55.7594 56.759C55.9694 56.647 56.1654 56.577 56.3474 56.549C56.7394 56.983 57.1104 57.529 57.4604 58.187C57.8104 58.831 58.1184 59.531 58.3844 60.287C58.6504 61.029 58.8534 61.799 58.9934 62.597C59.1474 63.395 59.2244 64.158 59.2244 64.886C59.2244 65.614 59.1404 66.363 58.9724 67.133C58.8184 67.903 58.5944 68.659 58.3004 69.401C58.0204 70.129 57.6914 70.822 57.3134 71.48C56.9354 72.138 56.5224 72.726 56.0744 73.244C55.6404 73.762 55.1854 74.182 54.7094 74.504C54.2334 74.84 53.7574 75.05 53.2814 75.134C52.3154 75.022 51.5734 74.707 51.0554 74.189C50.5514 73.685 50.2994 72.985 50.2994 72.089C50.2994 71.613 50.3694 71.095 50.5094 70.535C50.6634 69.975 50.8594 69.422 51.0974 68.876C51.3494 68.316 51.6364 67.777 51.9584 67.259C52.2944 66.727 52.6444 66.251 53.0084 65.831C53.3864 65.411 53.7644 65.054 54.1424 64.76C54.5204 64.466 54.8914 64.277 55.2554 64.193ZM53.1134 74.294C53.6034 74.126 54.0934 73.755 54.5834 73.181C55.0734 72.607 55.5144 71.935 55.9064 71.165C56.2984 70.381 56.6134 69.548 56.8514 68.666C57.1034 67.77 57.2294 66.909 57.2294 66.083C57.2294 65.845 57.2294 65.698 57.2294 65.642C57.2294 65.586 57.2224 65.53 57.2084 65.474C56.8724 65.614 56.5154 65.852 56.1374 66.188C55.7594 66.524 55.3814 66.916 55.0034 67.364C54.6254 67.798 54.2684 68.274 53.9324 68.792C53.5964 69.31 53.2954 69.828 53.0294 70.346C52.7634 70.864 52.5534 71.361 52.3994 71.837C52.2454 72.313 52.1684 72.733 52.1684 73.097C52.1684 73.797 52.4834 74.196 53.1134 74.294ZM64.1304 74.735C63.3324 74.651 62.6954 74.301 62.2194 73.685C61.7434 73.069 61.5054 72.285 61.5054 71.333C61.5054 70.773 61.5894 70.192 61.7574 69.59C61.9254 68.988 62.1634 68.407 62.4714 67.847C62.7794 67.273 63.1434 66.734 63.5634 66.23C63.9834 65.726 64.4384 65.292 64.9284 64.928C65.6984 64.354 66.4194 64.067 67.0914 64.067C67.5394 64.305 67.9804 64.802 68.4144 65.558C68.4844 65.558 68.5474 65.558 68.6034 65.558C68.6594 65.544 68.7224 65.537 68.7924 65.537C69.5344 65.537 69.9054 66.195 69.9054 67.511C69.9054 68.393 69.7584 69.233 69.4644 70.031C69.1844 70.815 68.7854 71.529 68.2674 72.173C67.7634 72.817 67.1544 73.363 66.4404 73.811C65.7404 74.245 64.9704 74.553 64.1304 74.735ZM65.2014 68.12C64.9634 68.442 64.7394 68.792 64.5294 69.17C64.3194 69.548 64.1374 69.933 63.9834 70.325C63.8294 70.703 63.7104 71.074 63.6264 71.438C63.5424 71.788 63.5004 72.103 63.5004 72.383C63.5004 72.719 63.5564 73.041 63.6684 73.349C63.7804 73.657 63.9064 73.832 64.0464 73.874C64.6764 73.734 65.2504 73.475 65.7684 73.097C66.3004 72.705 66.7554 72.222 67.1334 71.648C67.5254 71.074 67.8264 70.423 68.0364 69.695C68.2604 68.967 68.3724 68.19 68.3724 67.364C68.3724 67 68.3514 66.713 68.3094 66.503C68.2674 66.293 68.1974 66.111 68.0994 65.957C67.4834 66.139 66.9304 66.433 66.4404 66.839C65.9644 67.245 65.5514 67.672 65.2014 68.12ZM73.0009 73.139C73.0009 72.859 73.0289 72.467 73.0849 71.963C73.1549 71.459 73.2389 70.913 73.3369 70.325C73.4489 69.737 73.5679 69.135 73.6939 68.519C73.8339 67.903 73.9739 67.35 74.1139 66.86C74.2959 66.202 74.5759 65.698 74.9539 65.348C75.3459 64.984 75.8289 64.802 76.4029 64.802C76.7109 64.802 77.0119 64.851 77.3059 64.949C77.6139 65.047 77.7959 65.173 77.8519 65.327C77.4459 65.663 77.1169 66.083 76.8649 66.587C76.6269 67.077 76.4309 67.609 76.2769 68.183C76.1369 68.743 76.0249 69.324 75.9409 69.926C75.8709 70.514 75.7939 71.067 75.7099 71.585C76.1719 70.969 76.6059 70.416 77.0119 69.926C77.4319 69.422 77.8029 69.023 78.1249 68.729C78.5589 68.323 78.8529 67.987 79.0069 67.721C79.1609 67.441 79.2939 67.14 79.4059 66.818C79.4899 66.566 79.5879 66.272 79.6999 65.936C79.8259 65.6 80.0289 65.292 80.3089 65.012C80.3649 64.998 80.4839 64.991 80.6659 64.991C80.8059 64.991 80.9529 64.998 81.1069 65.012C81.2749 65.026 81.4289 65.054 81.5689 65.096C81.7089 65.138 81.8279 65.187 81.9259 65.243C82.0239 65.299 82.0799 65.369 82.0939 65.453C81.8699 65.747 81.6599 66.209 81.4639 66.839C81.2679 67.455 81.0929 68.134 80.9389 68.876C80.7849 69.618 80.6449 70.36 80.5189 71.102C80.3929 71.83 80.2809 72.446 80.1829 72.95C80.2389 72.922 80.3649 72.81 80.5609 72.614C80.7569 72.418 80.9739 72.173 81.2119 71.879C81.4639 71.585 81.7229 71.263 81.9889 70.913C82.2689 70.563 82.5139 70.22 82.7239 69.884C82.9899 69.478 83.2069 69.1 83.3749 68.75C83.5569 68.386 83.7109 68.001 83.8369 67.595C83.9769 67.189 84.1029 66.741 84.2149 66.251C84.3269 65.747 84.4459 65.152 84.5719 64.466C84.6559 64.354 84.8379 64.263 85.1179 64.193C85.4119 64.109 85.6779 64.067 85.9159 64.067C86.1259 64.067 86.2799 64.102 86.3779 64.172C86.3079 64.956 86.1749 65.656 85.9789 66.272C85.7969 66.888 85.5449 67.49 85.2229 68.078C84.9009 68.652 84.5019 69.233 84.0259 69.821C83.5499 70.395 82.9899 71.025 82.3459 71.711C82.0799 71.991 81.7859 72.299 81.4639 72.635C81.1559 72.971 80.8479 73.286 80.5399 73.58C80.2459 73.86 79.9659 74.098 79.6999 74.294C79.4479 74.49 79.2519 74.588 79.1119 74.588C78.7899 74.588 78.5239 74.462 78.3139 74.21C78.1039 73.958 77.9989 73.636 77.9989 73.244C77.9989 72.838 78.0129 72.488 78.0409 72.194C78.0829 71.886 78.1459 71.564 78.2299 71.228C78.3139 70.92 78.3769 70.661 78.4189 70.451C78.4749 70.241 78.5169 70.059 78.5449 69.905C78.5869 69.751 78.6149 69.618 78.6289 69.506C78.6429 69.394 78.6569 69.282 78.6709 69.17C78.5589 69.226 78.4119 69.345 78.2299 69.527C78.0479 69.695 77.8589 69.898 77.6629 70.136C77.4669 70.36 77.2709 70.591 77.0749 70.829C76.8789 71.067 76.7179 71.27 76.5919 71.438C76.3259 71.802 76.0949 72.124 75.8989 72.404C75.7029 72.684 75.5139 72.95 75.3319 73.202C75.1639 73.454 74.9959 73.713 74.8279 73.979C74.6599 74.231 74.4639 74.504 74.2399 74.798C73.7919 74.658 73.4699 74.448 73.2739 74.168C73.0919 73.888 73.0009 73.545 73.0009 73.139ZM91.434 63.815C91.798 63.927 92.141 64.179 92.463 64.571C92.785 64.949 93.023 65.369 93.177 65.831C93.023 66.209 92.785 66.664 92.463 67.196C92.141 67.728 91.819 68.274 91.497 68.834C91.175 69.38 90.881 69.905 90.615 70.409C90.363 70.899 90.216 71.305 90.174 71.627C90.398 71.389 90.643 71.116 90.909 70.808C91.189 70.486 91.455 70.171 91.707 69.863C91.973 69.541 92.218 69.254 92.442 69.002C92.666 68.736 92.841 68.54 92.967 68.414C93.233 68.134 93.548 67.812 93.912 67.448C94.276 67.07 94.654 66.72 95.046 66.398C95.452 66.062 95.858 65.782 96.264 65.558C96.67 65.32 97.041 65.201 97.377 65.201C97.741 65.201 98.042 65.327 98.28 65.579C98.532 65.817 98.728 66.069 98.868 66.335C98.868 66.363 98.812 66.405 98.7 66.461C98.602 66.503 98.455 66.636 98.259 66.86C98.063 67.112 97.839 67.462 97.587 67.91C97.349 68.344 97.111 68.82 96.873 69.338C96.649 69.842 96.46 70.36 96.306 70.892C96.152 71.424 96.075 71.907 96.075 72.341C96.075 72.691 96.117 72.915 96.201 73.013C96.299 73.111 96.432 73.16 96.6 73.16C96.754 73.16 96.915 73.125 97.083 73.055C97.251 72.985 97.384 72.95 97.482 72.95C97.538 72.978 97.58 73.041 97.608 73.139C97.65 73.223 97.671 73.3 97.671 73.37C97.559 73.468 97.426 73.566 97.272 73.664C97.118 73.762 96.957 73.853 96.789 73.937C96.621 74.021 96.453 74.091 96.285 74.147C96.131 74.203 95.991 74.231 95.865 74.231C95.459 74.231 95.123 74.168 94.857 74.042C94.605 73.93 94.402 73.776 94.248 73.58C94.108 73.384 94.01 73.153 93.954 72.887C93.898 72.607 93.87 72.313 93.87 72.005C93.87 71.837 93.884 71.648 93.912 71.438C93.94 71.228 93.996 70.983 94.08 70.703C94.164 70.409 94.283 70.066 94.437 69.674C94.591 69.268 94.787 68.785 95.025 68.225C94.997 68.225 94.808 68.323 94.458 68.519C94.108 68.715 93.73 69.016 93.324 69.422C92.666 70.052 92.071 70.675 91.539 71.291C91.021 71.907 90.489 72.593 89.943 73.349C89.635 73.783 89.362 74.147 89.124 74.441C88.9 74.749 88.704 74.952 88.536 75.05C88.242 74.882 88.025 74.644 87.885 74.336C87.745 74.042 87.64 73.734 87.57 73.412C87.57 73.146 87.605 72.81 87.675 72.404C87.759 71.998 87.864 71.55 87.99 71.06C88.13 70.556 88.298 70.031 88.494 69.485C88.69 68.939 88.907 68.393 89.145 67.847C89.677 66.615 90.16 65.649 90.594 64.949C91.042 64.249 91.322 63.871 91.434 63.815ZM120.295 67.553C120.071 67.567 119.798 67.714 119.476 67.994C119.154 68.26 118.804 68.61 118.426 69.044C118.062 69.464 117.677 69.933 117.271 70.451C116.879 70.969 116.494 71.487 116.116 72.005C115.752 72.509 115.409 72.985 115.087 73.433C114.765 73.881 114.492 74.238 114.268 74.504C113.96 74.378 113.694 74.196 113.47 73.958C113.246 73.706 113.085 73.398 112.987 73.034C113.057 72.6 113.155 72.152 113.281 71.69C113.407 71.214 113.568 70.724 113.764 70.22C113.974 69.716 114.226 69.191 114.52 68.645C114.828 68.085 115.199 67.497 115.633 66.881C115.423 66.895 115.136 67.049 114.772 67.343C114.408 67.623 114.016 67.994 113.596 68.456C113.176 68.904 112.742 69.415 112.294 69.989C111.846 70.549 111.426 71.102 111.034 71.648C110.516 72.376 110.082 73.013 109.732 73.559C109.396 74.105 109.151 74.427 108.997 74.525C108.633 74.259 108.381 73.972 108.241 73.664C108.101 73.356 107.996 73.013 107.926 72.635C107.94 72.299 107.989 71.879 108.073 71.375C108.171 70.871 108.304 70.353 108.472 69.821C108.794 68.799 109.207 67.784 109.711 66.776C110.229 65.768 110.726 64.844 111.202 64.004C111.594 64.088 111.944 64.221 112.252 64.403C112.574 64.585 112.91 64.851 113.26 65.201C113.12 65.635 112.903 66.097 112.609 66.587C112.315 67.063 112.007 67.567 111.685 68.099C111.363 68.631 111.069 69.177 110.803 69.737C110.537 70.297 110.362 70.864 110.278 71.438C110.67 70.878 111.132 70.234 111.664 69.506C112.21 68.778 112.763 68.092 113.323 67.448C113.897 66.804 114.464 66.258 115.024 65.81C115.584 65.362 116.088 65.138 116.536 65.138C116.704 65.138 116.886 65.166 117.082 65.222C117.278 65.278 117.46 65.348 117.628 65.432C117.796 65.516 117.936 65.6 118.048 65.684C118.16 65.754 118.223 65.81 118.237 65.852C118.167 66.132 117.999 66.517 117.733 67.007C117.481 67.483 117.208 67.987 116.914 68.519C116.62 69.051 116.347 69.569 116.095 70.073C115.843 70.563 115.696 70.955 115.654 71.249C116.34 70.311 116.984 69.464 117.586 68.708C118.188 67.938 118.755 67.28 119.287 66.734C119.819 66.188 120.309 65.768 120.757 65.474C121.219 65.18 121.653 65.033 122.059 65.033C122.339 65.033 122.598 65.11 122.836 65.264C123.088 65.404 123.263 65.614 123.361 65.894C123.235 66.314 123.025 66.818 122.731 67.406C122.451 67.994 122.164 68.617 121.87 69.275C121.576 69.919 121.31 70.556 121.072 71.186C120.848 71.816 120.736 72.383 120.736 72.887C120.736 73.181 120.778 73.377 120.862 73.475C120.946 73.559 121.065 73.601 121.219 73.601C121.387 73.601 121.541 73.573 121.681 73.517C121.835 73.447 121.947 73.412 122.017 73.412C122.101 73.468 122.15 73.538 122.164 73.622C122.178 73.706 122.185 73.783 122.185 73.853C121.905 74.077 121.618 74.259 121.324 74.399C121.03 74.553 120.701 74.63 120.337 74.63C120.001 74.63 119.721 74.574 119.497 74.462C119.287 74.35 119.112 74.196 118.972 74C118.832 73.804 118.734 73.58 118.678 73.328C118.622 73.076 118.594 72.803 118.594 72.509C118.594 72.033 118.657 71.564 118.783 71.102C118.909 70.626 119.056 70.178 119.224 69.758C119.406 69.324 119.595 68.925 119.791 68.561C119.987 68.183 120.155 67.847 120.295 67.553ZM133.622 65.306C133.566 66.174 133.412 66.923 133.16 67.553C132.908 68.169 132.544 68.715 132.068 69.191C131.606 69.653 131.039 70.073 130.367 70.451C129.695 70.829 128.911 71.193 128.015 71.543C128.015 71.627 128.008 71.718 127.994 71.816C127.994 71.9 127.994 71.991 127.994 72.089C127.994 72.271 128.008 72.46 128.036 72.656C128.064 72.852 128.113 73.034 128.183 73.202C128.253 73.37 128.351 73.51 128.477 73.622C128.603 73.72 128.764 73.769 128.96 73.769C129.338 73.769 129.709 73.685 130.073 73.517C130.437 73.349 130.78 73.146 131.102 72.908C131.438 72.656 131.746 72.39 132.026 72.11C132.32 71.816 132.579 71.55 132.803 71.312C132.943 71.438 133.062 71.557 133.16 71.669C132.53 72.509 131.837 73.209 131.081 73.769C130.339 74.315 129.632 74.665 128.96 74.819C127.994 74.707 127.238 74.357 126.692 73.769C126.16 73.167 125.894 72.446 125.894 71.606C125.894 71.032 125.971 70.451 126.125 69.863C126.293 69.261 126.517 68.687 126.797 68.141C127.091 67.581 127.427 67.056 127.805 66.566C128.197 66.076 128.61 65.649 129.044 65.285C129.492 64.921 129.947 64.634 130.409 64.424C130.885 64.214 131.354 64.109 131.816 64.109C132.46 64.193 133.062 64.592 133.622 65.306ZM132.173 65.999C131.795 66.055 131.403 66.209 130.997 66.461C130.591 66.713 130.206 67.049 129.842 67.469C129.492 67.889 129.17 68.379 128.876 68.939C128.582 69.499 128.351 70.101 128.183 70.745C129.303 70.185 130.234 69.499 130.976 68.687C131.718 67.861 132.117 66.965 132.173 65.999ZM148.623 67.553C148.399 67.567 148.126 67.714 147.804 67.994C147.482 68.26 147.132 68.61 146.754 69.044C146.39 69.464 146.005 69.933 145.599 70.451C145.207 70.969 144.822 71.487 144.444 72.005C144.08 72.509 143.737 72.985 143.415 73.433C143.093 73.881 142.82 74.238 142.596 74.504C142.288 74.378 142.022 74.196 141.798 73.958C141.574 73.706 141.413 73.398 141.315 73.034C141.385 72.6 141.483 72.152 141.609 71.69C141.735 71.214 141.896 70.724 142.092 70.22C142.302 69.716 142.554 69.191 142.848 68.645C143.156 68.085 143.527 67.497 143.961 66.881C143.751 66.895 143.464 67.049 143.1 67.343C142.736 67.623 142.344 67.994 141.924 68.456C141.504 68.904 141.07 69.415 140.622 69.989C140.174 70.549 139.754 71.102 139.362 71.648C138.844 72.376 138.41 73.013 138.06 73.559C137.724 74.105 137.479 74.427 137.325 74.525C136.961 74.259 136.709 73.972 136.569 73.664C136.429 73.356 136.324 73.013 136.254 72.635C136.268 72.299 136.317 71.879 136.401 71.375C136.499 70.871 136.632 70.353 136.8 69.821C137.122 68.799 137.535 67.784 138.039 66.776C138.557 65.768 139.054 64.844 139.53 64.004C139.922 64.088 140.272 64.221 140.58 64.403C140.902 64.585 141.238 64.851 141.588 65.201C141.448 65.635 141.231 66.097 140.937 66.587C140.643 67.063 140.335 67.567 140.013 68.099C139.691 68.631 139.397 69.177 139.131 69.737C138.865 70.297 138.69 70.864 138.606 71.438C138.998 70.878 139.46 70.234 139.992 69.506C140.538 68.778 141.091 68.092 141.651 67.448C142.225 66.804 142.792 66.258 143.352 65.81C143.912 65.362 144.416 65.138 144.864 65.138C145.032 65.138 145.214 65.166 145.41 65.222C145.606 65.278 145.788 65.348 145.956 65.432C146.124 65.516 146.264 65.6 146.376 65.684C146.488 65.754 146.551 65.81 146.565 65.852C146.495 66.132 146.327 66.517 146.061 67.007C145.809 67.483 145.536 67.987 145.242 68.519C144.948 69.051 144.675 69.569 144.423 70.073C144.171 70.563 144.024 70.955 143.982 71.249C144.668 70.311 145.312 69.464 145.914 68.708C146.516 67.938 147.083 67.28 147.615 66.734C148.147 66.188 148.637 65.768 149.085 65.474C149.547 65.18 149.981 65.033 150.387 65.033C150.667 65.033 150.926 65.11 151.164 65.264C151.416 65.404 151.591 65.614 151.689 65.894C151.563 66.314 151.353 66.818 151.059 67.406C150.779 67.994 150.492 68.617 150.198 69.275C149.904 69.919 149.638 70.556 149.4 71.186C149.176 71.816 149.064 72.383 149.064 72.887C149.064 73.181 149.106 73.377 149.19 73.475C149.274 73.559 149.393 73.601 149.547 73.601C149.715 73.601 149.869 73.573 150.009 73.517C150.163 73.447 150.275 73.412 150.345 73.412C150.429 73.468 150.478 73.538 150.492 73.622C150.506 73.706 150.513 73.783 150.513 73.853C150.233 74.077 149.946 74.259 149.652 74.399C149.358 74.553 149.029 74.63 148.665 74.63C148.329 74.63 148.049 74.574 147.825 74.462C147.615 74.35 147.44 74.196 147.3 74C147.16 73.804 147.062 73.58 147.006 73.328C146.95 73.076 146.922 72.803 146.922 72.509C146.922 72.033 146.985 71.564 147.111 71.102C147.237 70.626 147.384 70.178 147.552 69.758C147.734 69.324 147.923 68.925 148.119 68.561C148.315 68.183 148.483 67.847 148.623 67.553ZM156.91 74.735C156.112 74.651 155.475 74.301 154.999 73.685C154.523 73.069 154.285 72.285 154.285 71.333C154.285 70.773 154.369 70.192 154.537 69.59C154.705 68.988 154.943 68.407 155.251 67.847C155.559 67.273 155.923 66.734 156.343 66.23C156.763 65.726 157.218 65.292 157.708 64.928C158.478 64.354 159.199 64.067 159.871 64.067C160.319 64.305 160.76 64.802 161.194 65.558C161.264 65.558 161.327 65.558 161.383 65.558C161.439 65.544 161.502 65.537 161.572 65.537C162.314 65.537 162.685 66.195 162.685 67.511C162.685 68.393 162.538 69.233 162.244 70.031C161.964 70.815 161.565 71.529 161.047 72.173C160.543 72.817 159.934 73.363 159.22 73.811C158.52 74.245 157.75 74.553 156.91 74.735ZM157.981 68.12C157.743 68.442 157.519 68.792 157.309 69.17C157.099 69.548 156.917 69.933 156.763 70.325C156.609 70.703 156.49 71.074 156.406 71.438C156.322 71.788 156.28 72.103 156.28 72.383C156.28 72.719 156.336 73.041 156.448 73.349C156.56 73.657 156.686 73.832 156.826 73.874C157.456 73.734 158.03 73.475 158.548 73.097C159.08 72.705 159.535 72.222 159.913 71.648C160.305 71.074 160.606 70.423 160.816 69.695C161.04 68.967 161.152 68.19 161.152 67.364C161.152 67 161.131 66.713 161.089 66.503C161.047 66.293 160.977 66.111 160.879 65.957C160.263 66.139 159.71 66.433 159.22 66.839C158.744 67.245 158.331 67.672 157.981 68.12ZM165.088 73.58C165.158 73.174 165.277 72.642 165.445 71.984C165.627 71.312 165.837 70.605 166.075 69.863C166.313 69.107 166.565 68.351 166.831 67.595C167.097 66.839 167.356 66.16 167.608 65.558C167.79 65.124 167.951 64.788 168.091 64.55C168.231 64.298 168.385 64.088 168.553 63.92C168.749 63.948 168.952 63.997 169.162 64.067C169.372 64.137 169.575 64.221 169.771 64.319C169.967 64.417 170.142 64.522 170.296 64.634C170.45 64.732 170.569 64.83 170.653 64.928C170.275 65.376 169.939 65.887 169.645 66.461C169.365 67.035 169.078 67.77 168.784 68.666C169.54 67.994 170.205 67.35 170.779 66.734C171.367 66.118 171.913 65.432 172.417 64.676C172.501 64.606 172.648 64.571 172.858 64.571C173.054 64.571 173.243 64.606 173.425 64.676C173.607 64.732 173.733 64.816 173.803 64.928C173.551 65.6 173.425 66.265 173.425 66.923C173.425 67.539 173.516 68.001 173.698 68.309C173.684 68.393 173.586 68.554 173.404 68.792C173.236 69.03 173.047 69.254 172.837 69.464C172.459 69.268 172.123 69.002 171.829 68.666C171.535 68.316 171.318 67.938 171.178 67.532C170.52 67.994 169.96 68.449 169.498 68.897C169.036 69.331 168.637 69.821 168.301 70.367C167.979 70.899 167.699 71.515 167.461 72.215C167.237 72.915 167.02 73.748 166.81 74.714C166.684 74.7 166.53 74.651 166.348 74.567C166.18 74.497 166.005 74.406 165.823 74.294C165.655 74.182 165.501 74.063 165.361 73.937C165.221 73.811 165.13 73.692 165.088 73.58ZM183.847 70.745C183.525 71.767 183.203 72.698 182.881 73.538C182.559 74.378 182.216 75.148 181.852 75.848C181.488 76.562 181.096 77.213 180.676 77.801C180.256 78.403 179.794 78.97 179.29 79.502C178.646 80.174 177.981 80.685 177.295 81.035C176.609 81.399 175.923 81.581 175.237 81.581C174.887 81.581 174.537 81.539 174.187 81.455C173.851 81.385 173.536 81.28 173.242 81.14C172.934 81.014 172.668 80.86 172.444 80.678C172.206 80.51 172.038 80.328 171.94 80.132C171.94 79.964 172.038 79.817 172.234 79.691C172.402 79.845 172.542 79.964 172.654 80.048C172.766 80.132 172.878 80.202 172.99 80.258C173.088 80.314 173.2 80.349 173.326 80.363C173.438 80.377 173.571 80.384 173.725 80.384C174.523 80.384 175.3 80.146 176.056 79.67C176.826 79.208 177.547 78.543 178.219 77.675C178.905 76.821 179.528 75.778 180.088 74.546C180.648 73.328 181.124 71.963 181.516 70.451C181.334 70.731 181.11 71.074 180.844 71.48C180.578 71.886 180.284 72.292 179.962 72.698C179.64 73.09 179.304 73.447 178.954 73.769C178.618 74.091 178.289 74.308 177.967 74.42C177.743 74.406 177.505 74.357 177.253 74.273C177.015 74.203 176.784 74.098 176.56 73.958C176.35 73.818 176.161 73.65 175.993 73.454C175.825 73.258 175.713 73.034 175.657 72.782C175.657 72.376 175.671 72.054 175.699 71.816C175.727 71.564 175.776 71.291 175.846 70.997C175.972 70.465 176.154 69.863 176.392 69.191C176.644 68.519 176.931 67.861 177.253 67.217C177.589 66.559 177.953 65.95 178.345 65.39C178.751 64.816 179.171 64.368 179.605 64.046C179.717 64.046 179.857 64.06 180.025 64.088C180.193 64.102 180.368 64.137 180.55 64.193C180.732 64.249 180.907 64.319 181.075 64.403C181.243 64.473 181.39 64.571 181.516 64.697C181.362 64.837 181.026 65.306 180.508 66.104C179.99 66.902 179.416 68.05 178.786 69.548C178.716 69.702 178.632 69.926 178.534 70.22C178.436 70.514 178.338 70.822 178.24 71.144C178.156 71.466 178.079 71.781 178.009 72.089C177.939 72.397 177.904 72.642 177.904 72.824C177.904 72.936 177.918 73.02 177.946 73.076C177.988 73.132 178.023 73.174 178.051 73.202C178.303 73.16 178.639 72.957 179.059 72.593C179.479 72.215 179.955 71.634 180.487 70.85C180.823 70.346 181.131 69.849 181.411 69.359C181.691 68.855 181.964 68.351 182.23 67.847C182.51 67.343 182.797 66.825 183.091 66.293C183.385 65.761 183.7 65.215 184.036 64.655C184.218 64.655 184.414 64.676 184.624 64.718C184.834 64.76 185.037 64.816 185.233 64.886C185.429 64.942 185.597 65.012 185.737 65.096C185.891 65.166 186.003 65.243 186.073 65.327C185.639 66.251 185.233 67.154 184.855 68.036C184.477 68.918 184.141 69.821 183.847 70.745ZM194.989 72.656C194.989 72.04 195.136 71.179 195.43 70.073C195.724 68.953 196.137 67.651 196.669 66.167C197.537 63.801 198.349 61.834 199.105 60.266C199.875 58.684 200.624 57.452 201.352 56.57C201.52 56.598 201.723 56.668 201.961 56.78C202.213 56.892 202.458 57.018 202.696 57.158C202.934 57.284 203.144 57.417 203.326 57.557C203.522 57.697 203.648 57.809 203.704 57.893C202.612 59.181 201.653 60.567 200.827 62.051C200.001 63.535 199.245 65.236 198.559 67.154C197.971 68.806 197.523 70.297 197.215 71.627C196.907 72.943 196.753 74.042 196.753 74.924C196.753 75.162 196.753 75.309 196.753 75.365C196.753 75.421 196.76 75.477 196.774 75.533C196.578 75.505 196.41 75.456 196.27 75.386C196.13 75.316 196.039 75.232 195.997 75.134C195.969 75.064 195.892 74.959 195.766 74.819C195.64 74.693 195.528 74.595 195.43 74.525C195.304 74.441 195.199 74.224 195.115 73.874C195.031 73.51 194.989 73.104 194.989 72.656ZM209.026 65.516C209.166 65.516 209.327 65.544 209.509 65.6C209.705 65.642 209.88 65.705 210.034 65.789C210.188 65.859 210.314 65.936 210.412 66.02C210.524 66.104 210.58 66.181 210.58 66.251C210.3 66.839 210.041 67.434 209.803 68.036C209.565 68.624 209.362 69.191 209.194 69.737C209.026 70.283 208.893 70.794 208.795 71.27C208.711 71.746 208.669 72.159 208.669 72.509C208.669 72.901 208.711 73.23 208.795 73.496C208.879 73.748 209.019 73.93 209.215 74.042C209.047 74.154 208.83 74.245 208.564 74.315C208.298 74.385 208.06 74.42 207.85 74.42C207.094 74.42 206.716 73.902 206.716 72.866C206.716 72.068 206.982 70.976 207.514 69.59C207.234 70.234 206.912 70.843 206.548 71.417C206.184 71.977 205.813 72.474 205.435 72.908C205.057 73.342 204.672 73.699 204.28 73.979C203.902 74.245 203.552 74.406 203.23 74.462C202.712 74.434 202.292 74.189 201.97 73.727C201.648 73.251 201.487 72.649 201.487 71.921C201.487 71.137 201.655 70.311 201.991 69.443C202.327 68.575 202.754 67.77 203.272 67.028C203.804 66.286 204.378 65.67 204.994 65.18C205.61 64.676 206.205 64.41 206.779 64.382C206.919 64.424 207.073 64.508 207.241 64.634C207.423 64.76 207.591 64.907 207.745 65.075C207.913 65.243 208.053 65.418 208.165 65.6C208.277 65.768 208.34 65.915 208.354 66.041C207.794 66.125 207.213 66.398 206.611 66.86C206.023 67.322 205.484 67.882 204.994 68.54C204.518 69.184 204.126 69.877 203.818 70.619C203.51 71.361 203.356 72.054 203.356 72.698C203.356 72.964 203.454 73.132 203.65 73.202C204.056 73.118 204.525 72.775 205.057 72.173C205.589 71.557 206.233 70.612 206.989 69.338C207.129 69.086 207.283 68.806 207.451 68.498C207.633 68.19 207.815 67.868 207.997 67.532C208.179 67.196 208.354 66.86 208.522 66.524C208.704 66.174 208.872 65.838 209.026 65.516ZM216.937 63.815C217.301 63.927 217.644 64.179 217.966 64.571C218.288 64.949 218.526 65.369 218.68 65.831C218.526 66.209 218.288 66.664 217.966 67.196C217.644 67.728 217.322 68.274 217 68.834C216.678 69.38 216.384 69.905 216.118 70.409C215.866 70.899 215.719 71.305 215.677 71.627C215.901 71.389 216.146 71.116 216.412 70.808C216.692 70.486 216.958 70.171 217.21 69.863C217.476 69.541 217.721 69.254 217.945 69.002C218.169 68.736 218.344 68.54 218.47 68.414C218.736 68.134 219.051 67.812 219.415 67.448C219.779 67.07 220.157 66.72 220.549 66.398C220.955 66.062 221.361 65.782 221.767 65.558C222.173 65.32 222.544 65.201 222.88 65.201C223.244 65.201 223.545 65.327 223.783 65.579C224.035 65.817 224.231 66.069 224.371 66.335C224.371 66.363 224.315 66.405 224.203 66.461C224.105 66.503 223.958 66.636 223.762 66.86C223.566 67.112 223.342 67.462 223.09 67.91C222.852 68.344 222.614 68.82 222.376 69.338C222.152 69.842 221.963 70.36 221.809 70.892C221.655 71.424 221.578 71.907 221.578 72.341C221.578 72.691 221.62 72.915 221.704 73.013C221.802 73.111 221.935 73.16 222.103 73.16C222.257 73.16 222.418 73.125 222.586 73.055C222.754 72.985 222.887 72.95 222.985 72.95C223.041 72.978 223.083 73.041 223.111 73.139C223.153 73.223 223.174 73.3 223.174 73.37C223.062 73.468 222.929 73.566 222.775 73.664C222.621 73.762 222.46 73.853 222.292 73.937C222.124 74.021 221.956 74.091 221.788 74.147C221.634 74.203 221.494 74.231 221.368 74.231C220.962 74.231 220.626 74.168 220.36 74.042C220.108 73.93 219.905 73.776 219.751 73.58C219.611 73.384 219.513 73.153 219.457 72.887C219.401 72.607 219.373 72.313 219.373 72.005C219.373 71.837 219.387 71.648 219.415 71.438C219.443 71.228 219.499 70.983 219.583 70.703C219.667 70.409 219.786 70.066 219.94 69.674C220.094 69.268 220.29 68.785 220.528 68.225C220.5 68.225 220.311 68.323 219.961 68.519C219.611 68.715 219.233 69.016 218.827 69.422C218.169 70.052 217.574 70.675 217.042 71.291C216.524 71.907 215.992 72.593 215.446 73.349C215.138 73.783 214.865 74.147 214.627 74.441C214.403 74.749 214.207 74.952 214.039 75.05C213.745 74.882 213.528 74.644 213.388 74.336C213.248 74.042 213.143 73.734 213.073 73.412C213.073 73.146 213.108 72.81 213.178 72.404C213.262 71.998 213.367 71.55 213.493 71.06C213.633 70.556 213.801 70.031 213.997 69.485C214.193 68.939 214.41 68.393 214.648 67.847C215.18 66.615 215.663 65.649 216.097 64.949C216.545 64.249 216.825 63.871 216.937 63.815ZM234.284 65.306C234.228 66.174 234.074 66.923 233.822 67.553C233.57 68.169 233.206 68.715 232.73 69.191C232.268 69.653 231.701 70.073 231.029 70.451C230.357 70.829 229.573 71.193 228.677 71.543C228.677 71.627 228.67 71.718 228.656 71.816C228.656 71.9 228.656 71.991 228.656 72.089C228.656 72.271 228.67 72.46 228.698 72.656C228.726 72.852 228.775 73.034 228.845 73.202C228.915 73.37 229.013 73.51 229.139 73.622C229.265 73.72 229.426 73.769 229.622 73.769C230 73.769 230.371 73.685 230.735 73.517C231.099 73.349 231.442 73.146 231.764 72.908C232.1 72.656 232.408 72.39 232.688 72.11C232.982 71.816 233.241 71.55 233.465 71.312C233.605 71.438 233.724 71.557 233.822 71.669C233.192 72.509 232.499 73.209 231.743 73.769C231.001 74.315 230.294 74.665 229.622 74.819C228.656 74.707 227.9 74.357 227.354 73.769C226.822 73.167 226.556 72.446 226.556 71.606C226.556 71.032 226.633 70.451 226.787 69.863C226.955 69.261 227.179 68.687 227.459 68.141C227.753 67.581 228.089 67.056 228.467 66.566C228.859 66.076 229.272 65.649 229.706 65.285C230.154 64.921 230.609 64.634 231.071 64.424C231.547 64.214 232.016 64.109 232.478 64.109C233.122 64.193 233.724 64.592 234.284 65.306ZM232.835 65.999C232.457 66.055 232.065 66.209 231.659 66.461C231.253 66.713 230.868 67.049 230.504 67.469C230.154 67.889 229.832 68.379 229.538 68.939C229.244 69.499 229.013 70.101 228.845 70.745C229.965 70.185 230.896 69.499 231.638 68.687C232.38 67.861 232.779 66.965 232.835 65.999Z" fill="white"/>
</svg>
